<?xml version="1.0" standalone="no"?>
<!DOCTYPE svg PUBLIC "-//W3C//DTD SVG 20010904//EN"
 "http://www.w3.org/TR/2001/REC-SVG-20010904/DTD/svg10.dtd">
<svg version="1.0" xmlns="http://www.w3.org/2000/svg"
 width="768.000000pt" height="1344.000000pt" viewBox="0 0 768.000000 1344.000000"
 preserveAspectRatio="xMidYMid meet">

<g transform="translate(0.000000,1344.000000) scale(0.100000,-0.100000)"
fill="#000000" stroke="none">
<path d="M3270 11980 c-138 -66 -215 -114 -205 -130 2 -4 -1 -7 -8 -8 -64 -7
-200 -44 -218 -58 -8 -7 -29 -15 -47 -19 -40 -8 -151 -69 -172 -94 -9 -10 -28
-21 -44 -25 -47 -12 -145 -85 -179 -132 -17 -25 -39 -66 -49 -92 -17 -44 -22
-49 -94 -82 -116 -52 -159 -112 -165 -230 -3 -49 -30 -122 -54 -146 -8 -9 -15
-19 -15 -24 0 -4 -16 -27 -35 -50 -19 -23 -38 -54 -42 -68 -5 -23 -7 -23 -18
-8 -11 15 -14 13 -25 -14 -7 -17 -19 -34 -27 -38 -7 -5 -16 -26 -20 -48 -3
-21 -14 -50 -25 -63 -10 -13 -18 -32 -18 -42 0 -11 -4 -19 -9 -19 -5 0 -9 -10
-10 -22 -2 -82 2 -112 18 -124 9 -7 12 -18 7 -30 -8 -18 -9 -18 -17 4 -11 30
-19 28 -19 -6 0 -20 13 -42 40 -70 37 -40 38 -42 13 -36 -18 5 -24 4 -19 -5 4
-6 16 -11 26 -11 10 0 22 -4 25 -10 3 -5 13 -10 21 -10 20 0 58 -43 75 -82 11
-27 14 -29 20 -12 6 16 8 14 8 -8 1 -16 5 -28 11 -28 5 0 8 -25 6 -60 -2 -33
0 -60 4 -60 5 0 9 -19 9 -42 1 -24 2 -52 3 -63 1 -11 -1 -32 -5 -48 -5 -19 -4
-26 5 -25 14 3 28 -52 35 -139 3 -35 9 -63 13 -63 5 0 7 -12 6 -27 -2 -15 1
-43 6 -62 5 -20 14 -54 19 -76 6 -21 14 -44 18 -50 5 -5 16 -59 26 -120 9 -60
21 -115 26 -121 11 -13 -9 -24 -44 -24 -24 -1 -80 -29 -59 -30 7 0 11 -4 7 -9
-3 -6 3 -15 14 -21 13 -7 22 -7 26 0 10 17 73 -39 80 -71 4 -16 11 -31 16 -34
12 -8 11 -52 -2 -60 -5 -4 -19 4 -30 17 -10 12 -33 38 -49 55 -17 18 -30 42
-30 53 0 11 -6 20 -14 20 -7 0 -20 10 -28 22 -15 22 -15 22 -41 -23 -28 -48
-37 -125 -16 -146 5 -5 13 -36 16 -68 l6 -57 24 31 c14 18 30 28 38 25 8 -4
18 1 21 10 3 9 12 16 19 16 16 0 66 -47 83 -78 16 -31 10 -50 -20 -61 -13 -5
-33 -29 -46 -52 -33 -62 -21 -92 48 -116 58 -20 56 -18 64 -146 4 -75 3 -88
-9 -83 -20 7 -21 -57 -2 -73 25 -20 57 -179 57 -280 0 -48 -1 -49 -34 -55 -43
-8 -75 6 -103 47 -28 39 -30 14 -3 -30 24 -40 67 -63 119 -63 48 0 42 18 71
-205 41 -313 81 -468 161 -623 27 -53 71 -123 98 -154 l49 -57 6 -93 c3 -51 8
-215 11 -364 4 -230 8 -281 26 -345 30 -111 139 -313 158 -294 3 3 1 9 -5 13
-16 12 -44 60 -44 77 0 10 7 15 18 13 26 -4 52 20 52 49 0 13 4 22 10 18 5 -3
7 -12 3 -20 -4 -11 2 -15 23 -15 23 0 26 2 14 10 -16 10 -8 14 23 11 13 -2 17
5 17 27 0 46 38 48 79 5 17 -18 27 -33 21 -33 -5 0 -10 -4 -10 -9 0 -13 53
-66 63 -63 5 1 11 -7 14 -18 3 -11 8 -20 12 -20 3 0 21 -14 40 -31 19 -16 40
-28 47 -25 7 3 15 -2 18 -10 3 -8 17 -19 31 -26 15 -7 29 -24 34 -42 6 -23 13
-30 29 -29 21 3 36 -21 30 -48 -2 -8 4 -13 13 -11 12 2 18 -8 23 -37 4 -25 12
-42 24 -45 9 -3 36 -26 60 -50 35 -36 40 -45 25 -50 -9 -4 -20 -1 -24 5 -7 12
-29 4 -29 -10 0 -11 46 -31 71 -31 13 0 18 -4 13 -12 -5 -8 -2 -9 9 -5 11 4
17 1 17 -8 0 -9 -9 -15 -21 -15 -12 0 -19 -5 -16 -12 6 -21 69 -17 75 4 2 10
9 18 14 18 5 0 7 -8 3 -19 -7 -24 21 -36 33 -14 8 14 12 13 30 -5 18 -18 27
-20 79 -12 32 4 60 4 63 0 8 -11 119 -20 125 -10 3 5 19 11 36 15 17 4 33 13
36 21 3 8 14 14 24 14 12 0 19 7 19 20 0 11 6 20 13 20 6 0 32 19 57 42 25 24
49 43 55 44 5 0 16 2 22 2 7 1 12 10 11 20 -3 38 3 52 22 52 27 0 25 14 -2 27
-23 11 -23 11 5 18 15 4 27 13 27 21 0 8 5 14 10 14 6 0 27 16 46 35 19 20 39
33 45 30 5 -4 9 -1 9 5 0 16 56 68 110 101 26 16 50 38 53 49 3 13 14 20 30
20 16 0 27 6 29 17 2 10 12 18 25 18 13 0 23 5 23 10 1 12 33 25 72 30 20 3
26 0 21 -11 -3 -7 -9 -14 -14 -14 -5 0 -9 -4 -9 -9 0 -5 19 -7 43 -4 84 9 97
9 97 1 0 -4 -5 -8 -10 -8 -6 0 -10 -6 -9 -12 1 -7 -5 -29 -15 -48 -16 -34 -23
-47 -57 -100 -9 -14 -19 -34 -23 -45 -19 -59 105 141 153 246 45 97 58 188 65
444 4 127 9 276 12 332 l6 102 48 49 c155 160 255 424 310 821 12 85 23 158
26 162 2 4 17 10 33 14 36 8 101 69 101 95 0 10 5 22 10 25 6 3 10 16 10 28
-1 16 -7 10 -25 -25 -26 -49 -58 -78 -86 -78 -27 0 -28 19 -9 135 9 60 15 117
13 126 -3 10 3 48 12 86 11 42 18 110 19 177 1 88 4 110 16 114 8 3 30 20 48
38 48 48 42 88 -20 128 -24 16 -25 20 -15 44 15 35 48 72 63 72 7 0 22 -11 33
-25 18 -23 20 -24 29 -9 9 16 11 15 21 -4 7 -12 18 -22 26 -22 17 0 30 58 20
92 -5 18 -4 20 4 8 6 -8 11 -25 11 -37 0 -12 4 -24 8 -27 10 -6 15 134 6 186
-3 23 -19 52 -42 77 -30 33 -46 42 -81 45 -24 3 -45 7 -47 8 -1 2 3 17 11 33
16 33 38 110 41 139 1 10 6 21 11 25 5 3 10 30 11 60 1 33 7 60 16 70 9 10 16
34 16 54 0 20 5 39 10 42 6 3 10 23 10 43 0 38 10 62 26 65 5 1 8 5 7 9 -7 19
-7 26 1 71 4 26 11 47 16 47 5 0 10 14 12 32 3 34 27 52 29 21 0 -12 4 -9 11
10 8 21 15 27 29 24 18 -5 23 3 20 31 -1 6 3 12 9 12 5 0 10 6 10 14 0 8 12
37 26 65 14 28 29 73 34 99 22 111 37 166 48 170 7 2 12 15 12 28 0 13 4 24 9
24 10 0 81 66 81 76 0 4 -9 -2 -21 -15 -30 -32 -33 -21 -10 39 29 76 20 85
-44 49 l-53 -30 -11 31 c-8 25 -7 32 4 37 8 3 13 9 10 14 -3 4 -11 6 -18 3
-18 -6 -57 87 -50 117 3 13 10 29 15 36 5 6 5 14 0 17 -10 6 -9 36 2 54 6 11
12 10 27 -4 10 -9 19 -12 19 -6 0 16 -30 30 -51 25 -11 -3 -19 0 -19 6 0 6 4
11 8 11 5 0 3 38 -4 85 -13 92 -43 157 -80 174 -13 5 -34 26 -46 46 -17 26
-30 35 -50 35 -16 0 -28 5 -28 11 0 5 -4 8 -9 4 -16 -9 -25 16 -10 27 11 8 11
9 -2 5 -23 -8 -77 95 -95 181 -26 123 -71 201 -128 218 -11 3 -43 16 -71 29
-27 13 -57 26 -65 29 -43 18 -77 46 -92 77 -25 53 -88 105 -149 122 -57 17
-371 29 -362 15 2 -5 -10 -8 -26 -8 -17 0 -31 4 -31 9 0 6 -18 9 -40 8 -29 -1
-40 -6 -40 -17 0 -12 -2 -12 -9 -1 -6 9 -18 11 -42 6 -19 -5 -28 -10 -21 -12
17 -6 15 -23 -3 -23 -8 0 -15 5 -15 10 0 6 -10 10 -22 10 -19 0 -20 -2 -8 -10
13 -8 12 -10 -2 -10 -10 0 -18 5 -18 10 0 6 -5 10 -12 10 -6 0 -19 7 -28 15
-24 21 -220 20 -220 -1 0 -11 -30 -29 -35 -22 -12 15 -25 50 -21 57 8 12 -21
34 -33 27 -5 -4 -25 3 -45 15 -23 13 -43 18 -57 14 -17 -6 -21 -4 -16 8 4 12
-1 15 -24 15 -16 -1 -29 -2 -29 -4 0 -2 11 -14 25 -28 14 -14 25 -23 25 -20 0
2 9 0 21 -6 55 -30 -66 -38 -123 -9 -35 18 -38 22 -26 36 11 15 11 16 -6 10
-23 -9 -57 18 -49 39 3 9 -1 14 -13 14 -9 0 -26 8 -36 17 -18 16 -18 16 -12
-1 6 -16 3 -18 -27 -12 -19 3 -28 3 -21 0 6 -3 12 -12 12 -20 0 -9 4 -12 10
-9 5 3 20 -1 32 -10 23 -17 22 -17 -16 -10 -21 3 -45 13 -53 21 -8 8 -20 14
-28 14 -18 0 -67 26 -76 42 -6 9 -38 14 -101 16 -78 2 -100 0 -138 -18z m488
-103 c6 3 12 0 12 -6 0 -6 -6 -11 -14 -11 -26 0 -46 12 -46 28 0 14 2 14 18 0
9 -9 23 -13 30 -11z m-648 -11 c0 -3 -4 -8 -10 -11 -5 -3 -10 -1 -10 4 0 6 5
11 10 11 6 0 10 -2 10 -4z m700 -26 c0 -5 -6 -10 -14 -10 -8 0 -18 5 -21 10
-3 6 3 10 14 10 12 0 21 -4 21 -10z m20 -24 c0 -3 -4 -8 -10 -11 -5 -3 -10 -1
-10 4 0 6 5 11 10 11 6 0 10 -2 10 -4z m101 -29 c-8 -8 -14 -8 -23 1 -9 9 -8
12 5 12 9 0 17 6 18 13 0 9 2 8 6 -1 3 -8 0 -19 -6 -25z m258 -17 c4 0 12 5
18 11 12 12 33 4 33 -12 0 -5 -6 -9 -13 -9 -8 0 -22 -9 -32 -20 -10 -12 -25
-18 -32 -16 -7 3 -13 -1 -13 -9 0 -8 -4 -15 -9 -15 -12 0 -22 44 -11 48 6 2 8
8 4 13 -3 5 2 9 11 9 9 0 14 4 11 9 -4 5 0 11 6 14 7 2 14 -2 16 -10 2 -7 7
-13 11 -13z m131 10 c-20 -13 -43 -13 -35 0 3 6 16 10 28 10 18 0 19 -2 7 -10z
m715 -11 c46 -13 115 -77 115 -108 0 -11 -4 -21 -9 -21 -5 0 -15 -2 -23 -5 -7
-3 -25 6 -40 20 -39 36 -119 85 -140 85 -10 0 -18 5 -18 10 0 6 -9 10 -19 10
-11 0 -23 5 -26 10 -8 14 109 13 160 -1z m-790 -35 c-15 -15 -55 -28 -55 -17
0 6 64 42 68 38 3 -2 -3 -12 -13 -21z m43 4 c-2 -6 -10 -14 -16 -16 -7 -2 -10
2 -6 12 7 18 28 22 22 4z m752 -90 c0 -11 -49 23 -50 35 0 4 11 0 25 -9 14 -9
25 -20 25 -26z m807 -950 c-3 -8 -6 -5 -6 6 -1 11 2 17 5 13 3 -3 4 -12 1 -19z
m173 -265 c0 -14 -51 -93 -60 -93 -6 0 -10 9 -10 21 0 11 -4 18 -9 15 -5 -4
-7 3 -4 13 6 24 83 65 83 44z m-2267 -410 c-11 -31 -14 -33 -27 -21 -12 12 -4
21 31 37 1 1 0 -7 -4 -16z m162 -43 c-3 -5 -10 -10 -16 -10 -5 0 -9 5 -9 10 0
6 7 10 16 10 8 0 12 -4 9 -10z m125 0 c0 -5 -5 -10 -11 -10 -5 0 -7 5 -4 10 3
6 8 10 11 10 2 0 4 -4 4 -10z m-118 -33 c7 4 9 -2 5 -17 -9 -35 11 -60 41 -49
28 11 46 3 38 -18 -3 -8 -1 -11 4 -8 6 3 10 14 10 23 0 15 2 15 10 2 5 -8 10
-10 10 -4 0 16 42 26 54 14 7 -7 4 -21 -8 -40 l-18 -31 26 7 c25 6 31 -1 27
-28 0 -5 8 -8 19 -8 23 0 24 -4 10 -31 -8 -15 -7 -19 4 -19 7 0 16 7 20 15 3
8 15 15 26 15 17 0 20 -7 21 -42 l1 -43 13 30 c9 21 10 34 3 43 -7 8 -7 12 1
12 6 0 11 -4 11 -10 0 -5 7 -10 15 -10 8 0 15 -7 15 -15 0 -8 10 -19 22 -26
18 -10 20 -9 15 5 -4 10 1 20 13 26 27 15 32 13 25 -10 -5 -16 -2 -20 15 -20
12 0 18 -4 15 -10 -3 -5 -1 -10 4 -10 6 0 11 -7 11 -15 0 -10 9 -14 30 -11 17
2 33 -1 36 -6 4 -6 10 -5 16 3 8 11 9 10 4 -3 -4 -12 0 -18 12 -19 11 0 12 -2
4 -6 -7 -3 -19 1 -28 7 -19 16 -31 4 -18 -18 6 -9 40 -23 80 -32 79 -18 122
-35 145 -56 9 -8 26 -16 38 -17 13 -1 21 -8 21 -19 0 -9 5 -20 10 -23 19 -12
10 -26 -11 -20 -15 5 -19 4 -15 -4 7 -11 -1 -14 -44 -12 -23 1 -23 0 -5 -8 15
-7 8 -9 -30 -9 -27 -1 -75 -11 -105 -23 -30 -11 -77 -25 -105 -29 -27 -4 -62
-13 -76 -18 -14 -6 -32 -10 -40 -9 -25 1 -79 -15 -79 -24 0 -5 -6 -9 -14 -9
-8 0 -24 -13 -35 -28 -16 -23 -18 -32 -8 -42 9 -10 9 -14 -1 -17 -23 -9 -42
-34 -42 -58 0 -13 -10 -31 -22 -40 -20 -13 -21 -18 -9 -36 11 -18 11 -23 -1
-31 -10 -7 -9 -11 7 -23 16 -13 18 -19 7 -35 -10 -16 -9 -27 5 -60 21 -47 27
-49 49 -16 8 14 25 26 37 28 13 2 28 19 41 45 12 23 26 42 32 43 6 0 22 9 35
21 13 12 41 28 61 36 20 8 39 21 42 29 3 8 11 14 19 14 7 0 26 13 43 28 30 29
81 54 118 58 48 6 285 19 330 19 30 0 51 -5 54 -13 2 -6 16 -12 31 -12 30 0
72 -44 78 -81 2 -11 10 -27 18 -35 17 -18 20 -34 5 -34 -5 0 -10 -8 -10 -18 0
-24 -19 -42 -45 -42 -12 0 -26 -5 -33 -12 -21 -21 -79 -18 -180 8 -53 13 -119
24 -147 23 l-50 -1 75 -19 c71 -19 170 -58 110 -44 -81 20 -124 27 -205 34
-80 7 -87 9 -65 19 22 11 18 12 -30 8 -114 -10 -182 -48 -252 -141 -53 -71
-48 -91 19 -73 22 6 31 13 27 23 -4 9 1 18 12 22 11 3 33 17 50 30 44 33 56
29 83 -23 29 -54 50 -64 133 -64 58 0 64 2 95 36 18 20 33 41 33 47 0 26 13
-6 16 -38 1 -24 -2 -35 -11 -35 -8 0 -17 -5 -21 -11 -4 -8 15 -10 65 -7 49 3
77 1 89 -8 24 -18 73 -17 101 2 16 11 34 14 60 10 40 -6 67 8 130 70 41 40
104 46 122 11 7 -12 25 -33 40 -46 20 -16 29 -33 29 -52 0 -16 4 -29 9 -29 5
0 10 -15 10 -32 0 -34 7 -94 15 -138 2 -14 5 -43 6 -65 2 -35 3 -37 10 -15 8
25 8 25 10 -5 4 -47 0 -98 -10 -120 -4 -11 -14 -35 -22 -52 -7 -18 -15 -33
-18 -33 -3 0 -7 -14 -8 -32 -2 -18 -7 -35 -11 -38 -5 -3 -14 -28 -19 -55 -22
-103 -45 -180 -59 -192 -8 -6 -15 -25 -15 -43 -1 -20 -4 -26 -9 -18 -9 14 -7
16 -29 -54 -6 -21 -15 -38 -18 -38 -19 0 -82 -164 -82 -214 0 -15 -7 -27 -19
-31 -14 -4 -18 -15 -18 -46 0 -22 -5 -45 -12 -52 -6 -6 -11 -19 -11 -29 0 -10
-4 -18 -10 -18 -5 0 -10 -8 -10 -18 0 -10 -6 -24 -12 -30 -10 -10 -10 -14 0
-21 10 -6 7 -12 -11 -24 -18 -12 -26 -28 -31 -64 -6 -44 -10 -50 -46 -67 -22
-11 -40 -23 -40 -28 0 -12 -67 -78 -80 -78 -5 0 -10 -8 -11 -17 0 -10 -3 -13
-5 -7 -3 8 -24 0 -56 -22 -27 -19 -57 -34 -67 -34 -9 0 -24 -7 -34 -15 -21
-16 -41 -88 -31 -117 4 -14 0 -21 -13 -24 -14 -4 -18 -15 -18 -46 0 -24 -6
-43 -13 -46 -6 -2 -12 -8 -12 -13 0 -6 6 -7 13 -3 6 4 4 -2 -6 -13 -9 -11 -14
-23 -10 -27 4 -4 -10 -22 -30 -41 -21 -19 -38 -38 -39 -42 -4 -27 -16 -43 -59
-82 -27 -23 -64 -49 -84 -55 -20 -7 -36 -16 -36 -19 1 -4 1 -11 1 -16 0 -5
-28 -12 -62 -16 -34 -4 -82 -17 -108 -28 -25 -11 -67 -24 -95 -29 -27 -5 -63
-11 -80 -14 -73 -13 -169 -13 -189 2 -11 8 -34 14 -51 14 -17 0 -35 4 -41 8
-5 5 -43 15 -84 22 -41 7 -91 18 -110 25 -19 7 -50 10 -67 8 -26 -4 -33 -2
-33 11 0 9 5 16 12 16 6 0 8 3 5 7 -4 3 -16 -2 -26 -11 -19 -17 -21 -17 -48 2
-15 11 -35 30 -43 41 -8 12 -22 21 -31 21 -18 0 -56 39 -84 88 -11 18 -22 32
-26 32 -4 0 -12 14 -18 31 -6 17 -15 28 -20 25 -16 -10 -23 28 -7 40 18 13 21
24 5 24 -26 0 -39 29 -33 71 7 41 6 42 -19 37 -20 -4 -26 -1 -25 11 3 36 -3
51 -18 51 -14 0 -14 3 -4 15 11 13 10 18 -2 28 -8 7 -24 26 -36 43 -12 17 -37
42 -56 55 -20 13 -36 29 -36 36 0 6 -13 17 -30 25 -16 7 -30 19 -30 25 0 7 -4
13 -9 13 -5 0 -24 28 -41 63 -17 34 -42 79 -54 100 l-23 38 -16 -23 -16 -23 0
24 c-1 24 -46 71 -67 71 -7 0 -20 35 -29 78 -10 42 -20 81 -23 86 -3 5 0 6 5
3 6 -4 13 7 17 25 5 24 1 37 -14 53 -11 12 -20 33 -20 48 0 19 -5 27 -17 27
-15 0 -18 8 -17 42 1 39 -14 104 -15 69 -1 -11 -5 -10 -16 5 -19 25 -19 42 0
46 12 2 11 8 -8 28 -27 29 -37 61 -44 143 -3 40 -9 57 -19 57 -10 0 -14 15
-14 60 0 33 -4 60 -9 60 -13 0 -25 40 -22 73 2 21 -2 27 -18 27 -24 0 -25 1
-9 35 9 19 9 28 0 37 -14 14 -16 52 -3 44 5 -4 5 10 0 32 -11 48 -11 54 1 47
6 -3 10 -2 10 4 0 5 -4 12 -8 15 -13 8 -12 99 1 115 7 8 13 26 15 40 10 91 16
117 30 129 9 6 12 12 6 12 -5 0 1 8 12 18 26 21 41 62 23 62 -7 0 -4 9 9 20
18 17 19 24 11 50 -6 16 -9 35 -6 42 3 7 6 3 6 -8 1 -15 9 -23 26 -26 14 -3
23 -1 22 6 -3 14 47 20 70 8 25 -13 42 -4 36 19 -3 11 2 28 12 38 9 11 18 39
20 63 3 32 7 43 19 42 9 -1 16 3 16 10 0 30 48 69 96 79 72 14 300 18 364 5
30 -6 65 -12 77 -14 33 -3 270 -229 291 -277 6 -15 22 -32 34 -37 13 -5 19 -9
13 -9 -17 -2 46 -31 66 -31 12 0 19 7 19 20 0 12 9 33 19 48 17 23 19 34 11
72 -4 25 -6 49 -3 54 3 5 -5 18 -18 28 -13 11 -19 17 -13 14 7 -3 17 1 24 9
10 12 7 15 -13 20 -23 6 -67 54 -71 78 -1 7 -5 18 -9 25 -5 7 -3 12 7 12 8 0
19 -12 24 -27 8 -22 11 -23 11 -8 0 25 -32 65 -54 65 -9 0 -14 4 -11 9 3 5 -2
11 -12 15 -9 3 -30 14 -47 25 -16 11 -42 20 -56 20 -33 1 -84 17 -130 42 -20
10 -46 19 -57 19 -12 0 -24 5 -28 11 -4 6 -19 9 -36 5 -17 -3 -27 -2 -23 4 3
6 -14 7 -45 4 -33 -3 -49 -1 -46 5 8 12 -28 33 -39 23 -4 -4 -5 4 -3 18 2 17
10 26 25 28 15 2 20 8 16 19 -5 13 -3 13 15 4 27 -14 89 -14 98 1 5 8 2 9 -9
5 -10 -3 -17 -3 -17 2 0 4 21 8 46 8 25 0 49 5 53 12 5 8 18 10 36 5 24 -6 27
-4 22 10 -5 13 -3 16 12 11 18 -5 75 18 65 27 -2 3 4 8 16 11 11 3 23 -1 28
-9 6 -10 14 -7 37 14 36 33 61 46 103 50 7 1 10 7 7 12 -3 6 5 10 18 10 16 0
26 7 30 19 3 13 16 20 41 23 38 4 44 0 24 -20 -18 -18 -4 -24 24 -9 21 10 23
15 11 25 -7 7 -10 18 -6 25 5 8 8 8 11 -1 2 -7 9 -12 16 -12 8 0 25 -9 39 -20
14 -11 37 -20 50 -20 14 0 29 -5 33 -11 4 -8 9 -8 17 0 13 13 1 27 -28 33 -11
2 -20 10 -20 18 0 8 -3 17 -7 20 -4 3 -5 16 -1 28 4 18 8 20 20 11 10 -9 17
-9 25 -1 7 7 19 7 36 1 17 -7 29 -6 36 1 7 7 6 10 -2 11 -26 3 -31 4 -37 11
-4 4 -14 4 -23 1 -10 -4 -13 -2 -8 6 5 7 16 9 29 5 12 -3 19 -3 15 1 -4 4 -2
17 4 29 7 13 13 16 16 8 2 -6 9 -9 14 -5z m138 3 c0 -5 -4 -10 -10 -10 -5 0
-10 5 -10 10 0 6 5 10 10 10 6 0 10 -4 10 -10z m-90 -30 c0 -11 -7 -20 -15
-20 -18 0 -19 12 -3 28 16 16 18 15 18 -8z m-210 -80 c0 -5 -4 -10 -10 -10 -5
0 -10 5 -10 10 0 6 5 10 10 10 6 0 10 -4 10 -10z m-240 -20 c0 -5 -5 -10 -11
-10 -5 0 -7 5 -4 10 3 6 8 10 11 10 2 0 4 -4 4 -10z m-35 -60 c3 -5 -1 -10
-10 -10 -9 0 -13 5 -10 10 3 6 8 10 10 10 2 0 7 -4 10 -10z m-491 -236 c23 -9
20 -23 -4 -17 -11 3 -20 9 -20 14 0 11 3 11 24 3z m-454 -314 c0 -11 -39 -29
-45 -20 -3 5 -1 11 4 15 6 3 7 13 4 21 -5 14 -3 14 16 3 11 -8 21 -16 21 -19z
m-100 -10 c0 -5 -2 -10 -4 -10 -3 0 -8 5 -11 10 -3 6 -1 10 4 10 6 0 11 -4 11
-10z m152 -55 c-5 -26 -16 -32 -27 -14 -5 8 17 35 31 39 1 0 -1 -11 -4 -25z
m3014 -148 c3 -3 -4 -10 -15 -17 -12 -6 -21 -17 -21 -25 0 -7 -10 -17 -22 -21
-13 -4 -28 -14 -35 -23 -20 -26 -16 8 6 55 16 33 23 39 50 38 17 0 34 -3 37
-7z m-199 -719 c-3 -7 -5 -2 -5 12 0 14 2 19 5 13 2 -7 2 -19 0 -25z m-2447
-2324 c0 -14 -3 -14 -15 -4 -8 7 -15 14 -15 16 0 2 7 4 15 4 8 0 15 -7 15 -16z
m1855 -52 c-3 -3 -11 0 -18 7 -9 10 -8 11 6 5 10 -3 15 -9 12 -12z m-840 -353
c-5 -15 -1 -19 22 -20 15 -1 34 -1 41 0 8 1 16 -7 19 -18 3 -11 12 -21 22 -23
13 -3 11 -7 -8 -17 -37 -21 -81 -31 -78 -19 1 6 -4 13 -11 15 -8 3 -11 -3 -10
-18 3 -18 -3 -24 -29 -30 -43 -9 -66 -28 -60 -51 4 -14 -1 -18 -18 -18 -13 0
-27 5 -30 10 -3 6 -18 10 -33 10 -25 0 -25 -1 -6 -15 18 -14 18 -14 -7 -15
-15 0 -32 6 -38 14 -13 15 -65 30 -96 27 -15 -1 -17 0 -6 7 16 11 6 32 -15 32
-8 0 -14 4 -14 9 0 5 -9 13 -20 16 -14 4 -20 15 -20 35 0 16 -6 31 -12 33 -7
3 2 6 20 6 19 1 32 -4 32 -11 0 -9 3 -8 10 2 6 9 5 19 -3 29 -10 12 -8 13 15
8 15 -4 38 -3 53 3 24 9 26 8 20 -10 -3 -11 -2 -20 4 -20 21 0 41 13 41 26 0
16 16 19 25 4 3 -6 17 -7 31 -4 16 4 24 2 24 -7 0 -11 2 -11 10 1 5 8 26 15
50 16 23 1 46 6 52 12 16 16 30 4 23 -19z m125 -9 c0 -5 -2 -10 -4 -10 -3 0
-8 5 -11 10 -3 6 -1 10 4 10 6 0 11 -4 11 -10z m-650 -10 c0 -5 -4 -10 -10
-10 -5 0 -10 5 -10 10 0 6 5 10 10 10 6 0 10 -4 10 -10z m70 -2 c0 -12 -38
-10 -45 2 -4 6 5 9 19 8 15 -1 26 -6 26 -10z m40 -59 c0 -5 -4 -9 -10 -9 -5 0
-10 7 -10 16 0 8 5 12 10 9 6 -3 10 -10 10 -16z m40 -39 c0 -5 -4 -10 -10 -10
-5 0 -10 5 -10 10 0 6 5 10 10 10 6 0 10 -4 10 -10z m360 -61 c0 -5 -4 -9 -10
-9 -5 0 -10 7 -10 16 0 8 5 12 10 9 6 -3 10 -10 10 -16z"/>
<path d="M3836 9848 c3 -5 10 -6 15 -3 13 9 11 12 -6 12 -8 0 -12 -4 -9 -9z"/>
<path d="M3999 9820 c-20 -13 -5 -22 21 -12 18 7 20 10 8 14 -8 4 -21 2 -29
-2z"/>
<path d="M3880 9789 c0 -5 5 -7 10 -4 6 3 10 8 10 11 0 2 -4 4 -10 4 -5 0 -10
-5 -10 -11z"/>
<path d="M3737 9779 c7 -7 15 -10 18 -7 3 3 -2 9 -12 12 -14 6 -15 5 -6 -5z"/>
<path d="M2935 9065 c-33 -8 -80 -17 -105 -21 -25 -4 -50 -11 -57 -16 -7 -6
-26 -5 -48 1 -41 11 -65 6 -65 -15 0 -9 -11 -14 -30 -14 -16 0 -30 5 -30 10 0
6 -7 10 -16 10 -13 0 -11 -7 10 -35 15 -19 26 -41 25 -47 -4 -29 24 -78 47
-83 13 -3 36 -8 52 -11 15 -3 42 -13 61 -21 28 -14 38 -15 65 -3 17 7 50 12
73 11 23 -1 44 3 48 9 3 5 -1 10 -9 10 -22 0 -20 43 3 64 17 16 20 14 52 -29
41 -54 83 -69 169 -59 49 5 60 10 60 25 0 20 38 89 50 89 4 0 24 -11 44 -25
20 -14 40 -25 44 -25 10 0 47 -44 42 -48 -3 -2 3 -8 12 -13 18 -10 68 -2 68
11 0 12 -55 83 -99 127 -50 51 -78 66 -158 87 -71 19 -104 20 -53 3 19 -7 34
-16 33 -21 -2 -4 -56 -10 -120 -12 -115 -3 -144 -6 -185 -20 -14 -4 -19 -2
-16 7 2 8 40 26 84 41 65 22 73 27 44 27 -19 -1 -62 -7 -95 -14z"/>
<path d="M3345 8850 c-3 -5 1 -10 10 -10 9 0 13 5 10 10 -3 6 -8 10 -10 10 -2
0 -7 -4 -10 -10z"/>
<path d="M3288 8833 c7 -3 16 -2 19 1 4 3 -2 6 -13 5 -11 0 -14 -3 -6 -6z"/>
<path d="M5398 8430 c-7 -24 -3 -38 8 -28 3 4 4 17 2 30 l-3 23 -7 -25z"/>
<path d="M3618 7950 c-19 -10 -67 -23 -108 -29 -41 -7 -79 -16 -86 -22 -7 -6
-21 -9 -31 -7 -16 3 -18 -3 -15 -42 2 -25 9 -51 15 -59 29 -35 141 -54 177
-31 12 8 12 10 1 10 -11 0 -11 3 0 16 22 27 122 11 191 -32 75 -45 115 -45
205 2 42 22 88 38 122 41 54 6 54 6 48 -19 -4 -16 -2 -30 7 -37 19 -16 128 -7
159 14 26 17 47 67 47 113 0 21 -3 22 -34 17 -19 -4 -36 -2 -40 3 -4 6 -32 16
-64 22 -31 6 -78 20 -103 31 -46 21 -46 21 -90 2 -76 -34 -103 -42 -154 -47
-60 -6 -121 10 -155 39 -37 33 -54 36 -92 15z"/>
<path d="M3550 7408 c-53 -12 -101 -28 -145 -48 -22 -10 -67 -22 -100 -26 -61
-7 -127 -33 -142 -56 -4 -7 -8 -23 -8 -35 -1 -21 4 -23 45 -23 25 0 72 -7 103
-15 49 -13 62 -13 85 -1 29 14 218 15 367 1 44 -5 89 -8 100 -7 212 12 259 11
286 -2 24 -12 30 -12 40 0 7 9 16 11 23 6 6 -5 24 -12 39 -16 39 -9 52 -46 24
-68 -14 -11 -31 -15 -46 -11 -17 4 -22 2 -17 -6 5 -7 -5 -24 -22 -42 -28 -29
-37 -32 -158 -46 -71 -8 -151 -12 -179 -8 -27 3 -94 7 -147 8 -61 2 -102 7
-110 15 -6 6 -19 12 -28 12 -16 0 -29 10 -75 63 -14 15 -29 26 -34 23 -5 -3
-14 1 -21 9 -16 19 -50 20 -50 1 0 -7 6 -19 13 -25 9 -7 13 -28 11 -61 -2 -43
0 -50 17 -50 11 0 19 -7 19 -17 0 -33 142 -91 260 -107 69 -9 329 -10 384 -1
101 16 208 69 222 110 3 11 8 38 9 60 2 22 5 50 8 63 4 15 1 22 -9 22 -9 0
-14 7 -12 18 2 10 11 16 21 14 9 -2 27 3 39 10 57 31 168 25 168 -9 0 -8 12
-13 30 -13 34 0 41 17 8 22 -12 2 -23 9 -26 17 -3 8 0 11 6 7 6 -3 13 -2 17 4
3 5 -3 10 -14 10 -24 0 -38 19 -21 30 9 6 7 10 -9 15 -11 3 -27 12 -34 18 -21
20 -80 45 -122 52 -40 6 -122 33 -140 45 -65 46 -295 58 -295 16 0 -13 -118
-14 -128 0 -10 13 -50 34 -66 34 -7 0 -16 -9 -19 -19 -3 -15 -13 -19 -36 -19
-17 1 -31 5 -31 11 0 5 11 6 25 3 17 -4 25 -2 25 7 0 16 -92 19 -150 5z"/>
<path d="M4210 7136 c0 -9 5 -16 10 -16 6 0 10 4 10 9 0 6 -4 13 -10 16 -5 3
-10 -1 -10 -9z"/>
<path d="M3910 5530 c0 -5 9 -10 19 -10 11 0 23 5 26 10 4 6 -5 10 -19 10 -14
0 -26 -4 -26 -10z"/>
<path d="M4015 5490 c-3 -5 1 -10 9 -10 9 0 16 5 16 10 0 6 -4 10 -9 10 -6 0
-13 -4 -16 -10z"/>
<path d="M3798 11933 c6 -2 18 -2 25 0 6 3 1 5 -13 5 -14 0 -19 -2 -12 -5z"/>
<path d="M3810 11890 c0 -5 5 -10 10 -10 6 0 10 5 10 10 0 6 -4 10 -10 10 -5
0 -10 -4 -10 -10z"/>
<path d="M4087 11836 c-4 -10 1 -12 14 -9 23 6 24 9 5 16 -8 3 -17 0 -19 -7z"/>
<path d="M1816 10711 c-4 -7 -5 -15 -2 -18 9 -9 19 4 14 18 -4 11 -6 11 -12 0z"/>
<path d="M1792 10620 c0 -14 2 -19 5 -12 2 6 2 18 0 25 -3 6 -5 1 -5 -13z"/>
<path d="M2020 8767 c0 -13 -5 -28 -12 -35 -9 -9 -9 -15 0 -24 10 -10 15 -10
22 2 13 20 13 80 0 80 -5 0 -10 -10 -10 -23z"/>
<path d="M1970 8713 c0 -21 3 -24 9 -14 5 8 7 20 4 28 -8 21 -13 15 -13 -14z"/>
<path d="M5721 8624 c0 -11 3 -14 6 -6 3 7 2 16 -1 19 -3 4 -6 -2 -5 -13z"/>
<path d="M2017 8596 c-4 -15 -6 -31 -2 -34 10 -10 16 6 13 35 l-3 28 -8 -29z"/>
<path d="M5640 8539 c0 -11 5 -17 10 -14 6 3 10 13 10 21 0 8 -4 14 -10 14 -5
0 -10 -9 -10 -21z"/>
<path d="M5625 8443 c-10 -85 -57 -173 -92 -173 -7 0 -13 -9 -13 -20 0 -26 17
-17 64 36 45 52 65 101 66 167 0 65 -16 59 -25 -10z"/>
<path d="M5687 8406 c-4 -10 -7 -25 -6 -34 0 -11 4 -9 10 7 5 13 8 29 6 35 -2
5 -6 2 -10 -8z"/>
<path d="M2188 8403 c7 -3 16 -2 19 1 4 3 -2 6 -13 5 -11 0 -14 -3 -6 -6z"/>
<path d="M5671 8324 c0 -11 3 -14 6 -6 3 7 2 16 -1 19 -3 4 -6 -2 -5 -13z"/>
<path d="M5650 8275 c0 -8 2 -15 4 -15 2 0 6 7 10 15 3 8 1 15 -4 15 -6 0 -10
-7 -10 -15z"/>
<path d="M2147 8180 c-4 -15 0 -20 13 -20 27 0 34 17 11 29 -15 9 -20 7 -24
-9z"/>
<path d="M5483 8153 c-12 -13 -17 -23 -11 -23 5 0 8 -9 5 -19 -4 -17 14 -30
44 -31 8 0 2 81 -8 89 -4 4 -18 -3 -30 -16z"/>
<path d="M5588 8129 c-9 -16 -14 -29 -9 -29 8 0 34 50 29 56 -2 1 -11 -11 -20
-27z"/>
<path d="M2585 6344 c-28 -28 -78 -91 -112 -141 -35 -50 -102 -131 -150 -180
-49 -49 -120 -123 -158 -165 -67 -71 -76 -77 -155 -103 -102 -34 -284 -103
-360 -138 -183 -83 -325 -143 -490 -207 -69 -26 -208 -81 -310 -120 -247 -96
-338 -127 -441 -150 -48 -10 -159 -47 -248 -82 l-161 -63 0 -2497 0 -2498
3840 0 3840 0 0 2510 c0 1794 -3 2510 -11 2510 -6 0 -43 14 -82 32 -110 48
-223 84 -322 103 -58 11 -122 32 -184 61 -105 50 -251 102 -442 159 -68 21
-185 62 -259 93 -74 30 -155 63 -180 72 -25 10 -110 43 -190 75 -80 31 -216
81 -303 110 -87 30 -169 61 -182 69 -13 9 -61 53 -107 98 -46 46 -104 102
-130 124 -25 23 -61 68 -79 100 -18 33 -45 77 -60 99 -30 44 -129 148 -135
142 -3 -2 9 -36 25 -74 102 -239 116 -476 47 -813 -19 -96 -51 -227 -69 -290
-19 -63 -49 -162 -66 -220 -43 -145 -84 -316 -121 -505 -18 -88 -43 -214 -56
-280 -25 -125 -46 -169 -82 -171 -24 -1 -37 11 -45 41 -4 16 -5 14 -6 -6 -1
-28 33 -59 64 -59 9 0 18 -7 21 -15 9 -22 -81 -504 -171 -920 -24 -110 -51
-252 -60 -315 -9 -63 -39 -224 -66 -358 -27 -133 -50 -246 -50 -250 -1 -4 -5
11 -10 33 -4 22 -8 101 -9 175 0 74 -5 176 -10 225 -5 50 -14 164 -20 255 -22
329 -62 544 -158 850 -61 193 -65 215 -47 283 24 93 76 185 145 260 37 40 111
69 176 69 42 0 43 11 2 70 -126 179 -213 268 -349 359 -61 40 -77 47 -108 42
-20 -3 -49 -15 -66 -27 -26 -18 -43 -21 -139 -21 -113 0 -138 10 -91 35 23 12
35 40 18 40 -4 0 -39 -19 -77 -42 -83 -49 -235 -196 -293 -283 -22 -33 -54
-81 -71 -106 -39 -57 -41 -78 -6 -50 15 12 39 21 53 21 29 0 114 -49 175 -101
38 -34 137 -174 168 -239 42 -91 41 -85 25 -141 -8 -30 -18 -71 -21 -91 -4
-20 -26 -97 -51 -170 -127 -386 -181 -773 -205 -1468 -10 -302 -20 -464 -26
-457 -3 2 -45 202 -94 443 -49 242 -107 527 -130 634 -223 1060 -340 1649
-340 1712 0 16 -7 45 -16 66 -8 20 -31 102 -50 182 -48 203 -61 249 -105 385
-159 492 -170 978 -30 1254 37 72 23 82 -34 25z m4564 -5610 c27 -63 90 -123
156 -151 25 -10 45 -20 45 -23 0 -7 -92 -45 -110 -45 -8 -1 -14 -6 -13 -12 1
-6 -7 -19 -18 -29 -16 -15 -24 -16 -39 -6 -14 8 -21 8 -26 1 -4 -6 -1 -14 5
-18 18 -11 2 -41 -17 -33 -16 5 -16 4 0 -11 20 -21 13 -47 -12 -47 -22 0 -32
24 -17 39 9 9 8 10 -7 5 -16 -6 -18 -4 -14 14 4 12 0 26 -8 33 -8 6 -12 15 -9
18 2 4 -3 8 -11 8 -11 0 -9 -6 8 -24 12 -12 18 -23 15 -23 -4 0 -20 15 -36 32
-20 23 -26 37 -20 45 7 7 6 14 -2 19 -7 4 -9 3 -5 -4 13 -21 -14 -23 -40 -3
-14 11 -38 23 -54 26 -17 4 -30 10 -30 13 1 12 100 51 120 47 12 -2 18 0 15 6
-4 5 -12 6 -18 2 -7 -4 6 14 28 39 29 34 43 43 52 36 7 -6 10 -15 6 -22 -4 -7
-2 -7 7 1 10 9 10 15 -3 27 -14 15 -14 20 1 56 9 22 19 40 22 40 3 0 16 -25
29 -56z m22 -306 c-11 -11 -13 -10 -7 0 4 7 2 21 -5 30 -12 15 -11 15 6 0 16
-15 17 -20 6 -30z m-41 -88 c0 -5 -4 -10 -10 -10 -5 0 -10 5 -10 10 0 6 5 10
10 10 6 0 10 -4 10 -10z"/>
<path d="M7128 703 c-3 -12 -3 -22 1 -21 21 2 31 -3 25 -14 -4 -7 -3 -10 1 -5
5 4 16 1 25 -5 9 -7 4 -1 -11 13 -14 15 -29 33 -31 40 -3 8 -7 5 -10 -8z"/>
<path d="M7066 671 c-3 -5 2 -15 12 -22 15 -12 16 -12 5 2 -7 9 -10 19 -6 22
3 4 4 7 0 7 -3 0 -8 -4 -11 -9z"/>
<path d="M7200 616 c0 -2 8 -10 18 -17 15 -13 16 -12 3 4 -13 16 -21 21 -21
13z"/>
<path d="M7110 455 c-7 -8 -11 -15 -9 -16 37 -7 40 -7 30 5 -6 7 -8 16 -4 19
3 4 4 7 1 7 -3 0 -11 -7 -18 -15z"/>
<path d="M2990 5950 c0 -5 5 -10 10 -10 6 0 10 5 10 10 0 6 -4 10 -10 10 -5 0
-10 -4 -10 -10z"/>
<path d="M3027 5932 c-2 -4 0 -20 4 -37 7 -30 7 -30 8 -3 0 14 6 28 13 30 8 3
6 7 -5 11 -9 3 -18 3 -20 -1z"/>
<path d="M4708 5608 c-10 -10 -18 -22 -18 -28 0 -5 -12 -21 -26 -35 -14 -14
-23 -29 -20 -33 8 -7 66 58 66 75 0 6 5 13 12 15 6 2 9 8 7 14 -2 5 -12 2 -21
-8z"/>
<path d="M4619 5473 c-13 -16 -12 -17 4 -4 16 13 21 21 13 21 -2 0 -10 -8 -17
-17z"/>
<path d="M4090 5339 c0 -5 5 -7 10 -4 6 3 10 8 10 11 0 2 -4 4 -10 4 -5 0 -10
-5 -10 -11z"/>
</g>
</svg>
